<?xml version="1.0" encoding="utf-8"?>
<!-- Generator: Adobe Illustrator 16.0.0, SVG Export Plug-In . SVG Version: 6.00 Build 0)  -->
<!DOCTYPE svg PUBLIC "-//W3C//DTD SVG 1.1//EN" "http://www.w3.org/Graphics/SVG/1.1/DTD/svg11.dtd">
<svg version="1.1"
	 id="Ebene_1" xmlns:dc="http://purl.org/dc/elements/1.1/" xmlns:cc="http://creativecommons.org/ns#" xmlns:rdf="http://www.w3.org/1999/02/22-rdf-syntax-ns#" xmlns:svg="http://www.w3.org/2000/svg" xmlns:sodipodi="http://sodipodi.sourceforge.net/DTD/sodipodi-0.dtd" xmlns:inkscape="http://www.inkscape.org/namespaces/inkscape" inkscape:version="0.48.2 r9819" sodipodi:docname="XBMC_Logo_-_letters_only.svg"
	 xmlns="http://www.w3.org/2000/svg" xmlns:xlink="http://www.w3.org/1999/xlink" x="0px" y="0px" width="251.891px"
	 height="62.018px" viewBox="0 0 251.891 62.018" enable-background="new 0 0 251.891 62.018" xml:space="preserve">
<sodipodi:namedview  fit-margin-left="0" fit-margin-top="0" inkscape:cy="7.4690001" inkscape:cx="118.378" inkscape:zoom="0.70387041" showgrid="false" guidetolerance="10" gridtolerance="10" objecttolerance="10" borderopacity="1" pagecolor="#ffffff" bordercolor="#666666" id="namedview3147" fit-margin-bottom="0" fit-margin-right="0" inkscape:current-layer="Ebene_1" inkscape:window-maximized="0" inkscape:window-y="0" inkscape:window-x="0" inkscape:window-height="637" inkscape:window-width="942" inkscape:pageshadow="2" inkscape:pageopacity="0">
	</sodipodi:namedview>
<path id="path46_4_" inkscape:connector-curvature="0" fill="#FFFFFF" d="M78.371,0l-1.844,12.724H65.359
	c-6.775,0-13.047,2.403-18.824,7.191c-1.512,1.262-2.877,2.563-4.086,3.965c-0.672-1.4-1.518-2.703-2.553-3.965
	c-3.944-4.788-9.334-7.191-16.115-7.191H9.355c-0.519,2.69-0.009,4.979,1.533,6.874c1.532,1.898,3.631,2.865,6.327,2.865h4.716
	c4.043,0,7.193,1.45,9.47,4.362c2.278,2.921,3.045,6.411,2.283,10.45c-0.769,4.038-2.833,7.486-6.215,10.361
	c-3.391,2.877-7.125,4.322-11.157,4.322h-4.721c-2.699,0-5.169,0.931-7.428,2.831C1.906,56.682,0.513,58.963,0,61.658h14.463
	c6.779,0,13.022-2.355,18.79-7.106c1.517-1.255,2.882-2.571,4.087-3.97c0.673,1.397,1.551,2.715,2.591,3.97
	c3.952,4.751,9.297,7.106,16.077,7.106h14.464c0.512-2.695,0.008-4.977-1.535-6.868c-1.529-1.9-3.672-2.831-6.365-2.831h-4.678
	c-4.045,0-7.22-1.445-9.511-4.322c-2.291-2.875-3.059-6.323-2.278-10.361c0.764-4.039,2.85-7.529,6.248-10.45
	c3.393-2.912,7.123-4.362,11.162-4.362h4.715c2.639,0,5.053-0.934,7.27-2.744l-2.553,17.434c-1.012,6.895,0.594,12.724,4.875,17.557
	c4.168,4.892,9.809,7.309,16.625,7.309c6.9,0,13.172-2.417,18.865-7.309c5.641-4.833,8.961-10.662,9.979-17.557
	c1.019-6.894-0.594-12.718-4.791-17.555c-4.276-4.785-9.873-7.228-16.824-7.228H86.978l0.312-1.926c0.4-2.834-0.242-5.323-2-7.38
	C83.577,1.008,81.233,0,78.371,0z M85.526,22.266h14.74c4.118,0,7.395,1.408,9.825,4.324c2.355,2.909,3.214,6.473,2.632,10.561
	c-0.591,4.088-2.525,7.587-5.74,10.526c-3.281,2.967-6.959,4.479-11.084,4.479c-4.092,0-7.344-1.512-9.783-4.479
	c-2.402-2.939-3.334-6.438-2.752-10.526L85.526,22.266z"/>
<path id="path48_4_" inkscape:connector-curvature="0" fill="#FFFFFF" d="M151.084,12.37c-6.824,0-13.123,2.425-18.709,7.266
	c-5.696,4.917-9.047,10.741-10.061,17.641l-3.619,24.74c2.916,0,5.525-0.973,7.822-3.027c2.36-2.028,3.696-4.473,4.127-7.382
	l2.082-14.331c0.614-4.121,2.6-7.659,5.856-10.646c3.293-2.916,6.949-4.361,11.045-4.361c4.115,0,7.396,1.445,9.826,4.361
	c2.348,2.987,3.246,6.525,2.631,10.646l-2.082,14.331c-0.422,2.859,0.316,5.249,2.082,7.305c1.738,2.057,4.015,3.104,6.879,3.104
	l3.615-24.74c0.615-4.121,2.525-7.659,5.816-10.646c3.283-2.916,6.985-4.361,11.08-4.361c4.096,0,7.321,1.445,9.754,4.361
	c2.356,2.987,3.324,6.525,2.713,10.646l-2.123,14.331c-0.432,2.859,0.283,5.249,2.041,7.305c1.768,2.057,4.021,3.104,6.879,3.104
	l1.693-11.589c0.771,1.524,1.754,2.971,2.94,4.321c4.252,4.842,9.808,7.268,16.623,7.268h14.668c0.396-2.729-0.192-5.067-1.85-6.992
	c-1.627-1.921-3.84-2.867-6.563-2.867h-4.795c-4.1,0-7.354-1.486-9.785-4.399c-2.483-2.911-3.416-6.396-2.834-10.48
	c0.623-4.121,2.552-7.659,5.896-10.646c3.287-2.916,6.988-4.361,11.082-4.361h4.756c2.729,0,5.268-1.017,7.469-2.941
	c2.217-1.925,3.453-4.194,3.851-6.955h-14.658c-6.822,0-13.076,2.425-18.746,7.267c-2.76,2.418-4.949,5.06-6.604,7.937
	c-0.797-2.896-2.223-5.551-4.284-7.937c-4.228-4.842-9.753-7.267-16.703-7.267c-3.851,0-7.599,0.894-11.396,2.631
	c-3.738,1.736-7.059,4.063-9.863,7.11c-1.981-3.048-4.623-5.448-7.862-7.185C158.561,13.242,155.011,12.37,151.084,12.37
	L151.084,12.37z"/>
</svg>
